<?xml version="1.0" standalone="no"?>
<svg viewBox="0 0 200 200" xmlns="http://www.w3.org/2000/svg">
  <path fill="#FF0066" d="M47.7,-74.3C61.9,-65.1,73.5,-52,78.8,-37C84.2,-21.9,83.3,-5,78.2,9.3C73.2,23.7,63.9,35.5,53.1,43.4C42.2,51.4,29.8,55.4,17.1,59.9C4.4,64.4,-8.7,69.3,-24.1,70.2C-39.4,71,-57,67.9,-63.9,57C-70.7,46.1,-66.7,27.6,-62.9,12.8C-59.1,-1.9,-55.6,-12.8,-52.2,-25.4C-48.9,-37.9,-45.7,-52.1,-37,-63.8C-28.4,-75.5,-14.2,-84.9,1.3,-86.9C16.8,-88.9,33.5,-83.6,47.7,-74.3Z" transform="translate(100 100)" />
</svg>
